# xmcd
#
# Track frame offsets:
#	150
#	20575
#	39030
#	53155
#	70875
#	92065
#	114950
#	131870
#	152300
#	174840
#
# Disc length: 2709 seconds
#
# Revision: 1
# Processed by: cddbd v1.5.1PL0 Copyright (c) Steve Scherf et al.
# Submitted via: audiograbber 1.83.01
#
DISCID=710a930a
DTITLE=Hardway Connection - Party Til The Lights Go Out
DYEAR=1900
DGENRE=Beach Music
TTITLE0=Party Til The Lights Go Out
TTITLE1=Same Girl
TTITLE2=What She Don't Know
TTITLE3=Come On And Dance
TTITLE4=One In The Morning
TTITLE5=My Money
TTITLE6=So Sad
TTITLE7=Really
TTITLE8=I Am Going Crazy
TTITLE9=Friend Of Mine
EXTD=
EXTT0=
EXTT1=
EXTT2=
EXTT3=
EXTT4=
EXTT5=
EXTT6=
EXTT7=
EXTT8=
EXTT9=
PLAYORDER=
